# xmcd CD database file
#
# Track frame offsets:
#	150
#	11515
#	24355
#	35282
#	45592
#	53782
#	66930
#	76665
#	91665
#	102402
#	112420
#	123354
#	135775
#	138210
#	149102
#	160382
#
# Disc length: 2314 seconds
#
# Revision: 0
# Processed by: cddbd v1.5.2PL0 Copyright (c) Steve Scherf et al.
# Submitted via: CDex 1.51
#
DISCID=cf090810
DTITLE=Stuff Smith - The 1943 Trio
DYEAR=1943
DGENRE=Jazz
TTITLE0=Humoresque
TTITLE1=Minuet in Swing
TTITLE2=Minuet in Swing (2)
TTITLE3=Minuet in Swing (3)
TTITLE4=A Ghost of a Chance
TTITLE5=A Ghost of a Chance (2)
TTITLE6=La Cinquantaine
TTITLE7=Desert Sands
TTITLE8=Bugle Call Rag
TTITLE9=Bugle Call Rage
TTITLE10=Melody in F
TTITLE11=The Red Jumps
TTITLE12=The Red Jumps (2)
TTITLE13=The Red Jumps (3)
TTITLE14=To a Wild Rose
TTITLE15=She's Funny That Way
EXTD=YEAR: 1943
EXTT0=
EXTT1=
EXTT2=
EXTT3=
EXTT4=
EXTT5=
EXTT6=
EXTT7=
EXTT8=
EXTT9=
EXTT10=
EXTT11=
EXTT12=
EXTT13=
EXTT14=
EXTT15=
PLAYORDER=
